<?xml version="1.0" standalone="no"?>
<!DOCTYPE svg PUBLIC "-//W3C//DTD SVG 20010904//EN"
 "http://www.w3.org/TR/2001/REC-SVG-20010904/DTD/svg10.dtd">
<svg version="1.0" xmlns="http://www.w3.org/2000/svg"
 width="512.000000pt" height="512.000000pt" viewBox="0 0 512.000000 512.000000"
 preserveAspectRatio="xMidYMid meet">
<metadata>
Created by potrace 1.11, written by Peter Selinger 2001-2013
</metadata>
<g transform="translate(0.000000,512.000000) scale(0.100000,-0.100000)"
fill="#000000" stroke="none">
<path d="M845 4224 c-16 -13 -37 -24 -45 -24 -13 0 -13 -1 0 -10 13 -8 12 -10
-2 -10 -10 0 -18 -5 -18 -12 0 -6 -3 -9 -6 -5 -7 6 -33 -14 -81 -61 -19 -18
-38 -30 -43 -27 -6 3 -10 0 -10 -8 0 -8 -9 -17 -21 -20 -12 -3 -18 -10 -14
-16 3 -6 0 -11 -8 -11 -8 0 -22 -9 -32 -20 -10 -11 -24 -20 -32 -20 -8 0 -11
-4 -8 -10 3 -5 2 -10 -4 -10 -6 0 -24 -13 -40 -29 -16 -16 -32 -26 -35 -23 -3
3 -6 -2 -6 -11 0 -11 -5 -14 -17 -10 -11 4 -14 3 -9 -5 4 -7 3 -12 -1 -12 -9
0 -49 -32 -115 -92 -23 -20 -46 -34 -52 -31 -6 3 -8 3 -4 -1 10 -12 -25 -43
-42 -38 -8 3 -12 2 -8 -3 4 -4 -15 -25 -42 -45 -27 -20 -47 -40 -43 -44 3 -3
0 -6 -8 -6 -9 0 -25 -9 -37 -20 -12 -11 -26 -20 -31 -20 -5 0 -13 -6 -18 -12
-11 -17 -11 -1348 0 -1348 5 0 15 -7 24 -15 8 -8 19 -12 25 -9 7 4 8 2 4 -4
-4 -7 -2 -12 4 -12 6 0 22 -12 35 -26 14 -15 25 -24 25 -20 0 4 6 1 14 -6 8
-7 11 -17 8 -22 -3 -5 0 -6 6 -2 6 4 21 -3 32 -14 19 -19 22 -19 36 -5 9 8 21
15 29 15 7 0 16 7 19 16 3 8 10 12 16 9 6 -3 13 1 16 9 3 9 13 16 21 16 8 0
11 5 8 10 -3 6 1 10 10 10 8 0 18 6 21 14 3 9 12 12 21 9 11 -4 14 -2 9 5 -3
6 2 16 13 21 26 14 31 14 25 -3 -3 -8 -1 -17 5 -21 7 -3 8 -13 3 -23 -10 -21
-9 -63 1 -79 5 -7 4 -13 0 -13 -5 0 -9 -23 -9 -50 0 -28 4 -50 9 -50 4 0 5 -6
0 -12 -8 -14 -13 -72 -6 -64 3 2 19 -9 35 -25 17 -16 35 -29 40 -29 5 0 6 -5
2 -12 -4 -6 -3 -8 3 -5 6 4 23 -7 39 -23 16 -16 35 -30 42 -30 6 0 12 -4 12
-8 0 -5 11 -14 24 -22 22 -11 27 -10 51 16 15 16 23 23 19 15 -5 -9 -3 -12 4
-7 7 4 12 14 12 22 0 8 4 13 9 9 5 -3 16 4 24 15 7 11 17 17 20 13 4 -3 7 -1
7 4 0 6 18 24 40 41 22 16 37 32 33 35 -8 9 5 9 34 1 13 -4 20 -10 17 -15 -3
-5 3 -12 13 -16 17 -6 45 -29 99 -80 13 -13 27 -23 32 -23 6 0 13 -7 16 -16 3
-8 10 -12 16 -9 5 3 10 -2 11 -12 0 -11 3 -13 6 -5 2 6 9 10 14 6 5 -3 9 2 9
11 0 9 5 13 10 10 6 -3 10 -1 10 5 0 6 5 8 10 5 6 -3 10 1 10 9 0 9 3 15 8 14
4 -2 17 6 29 17 12 11 34 30 48 43 14 12 25 20 25 16 0 -3 8 4 18 16 18 22 24
123 9 147 -4 6 -4 14 1 17 9 6 9 87 -1 103 -4 6 -3 14 2 18 5 3 8 15 6 27 -7
32 14 39 42 14 13 -11 35 -31 49 -43 13 -13 28 -23 32 -23 7 -1 57 -37 76 -56
21 -21 52 -22 65 -3 6 11 17 19 25 19 8 0 17 7 20 16 3 8 10 13 14 10 5 -3 15
3 24 12 29 32 54 48 68 44 8 -3 12 -1 8 2 -3 4 2 16 12 26 11 11 17 29 15 49
-1 18 2 31 9 31 7 0 8 3 1 8 -14 9 -14 65 0 74 7 5 7 8 -1 8 -6 0 -9 14 -7 33
2 17 4 38 3 45 0 6 0 19 0 27 0 8 0 22 0 30 0 8 0 22 0 30 0 8 0 22 0 30 0 8
0 22 0 30 0 8 0 21 0 28 0 6 -1 40 -3 75 -2 39 1 62 7 62 8 0 8 3 1 8 -6 4
-11 21 -11 37 0 17 5 33 11 37 6 5 6 8 0 8 -11 0 -12 50 -1 68 4 7 3 12 -2 12
-10 0 -9 30 2 48 4 6 3 12 -2 12 -10 0 -9 30 1 47 4 6 3 14 -2 17 -10 7 -9 25
2 43 4 6 3 14 -3 18 -7 4 -7 12 0 24 5 10 7 21 4 24 -10 10 -11 57 -2 57 5 0
6 5 2 12 -11 18 -11 78 -1 78 6 0 6 5 1 13 -11 15 -11 38 -1 55 5 6 4 12 -1
12 -10 0 -9 30 2 48 4 6 3 12 -2 12 -5 0 -8 12 -6 28 5 35 -5 84 -16 77 -4 -3
-10 4 -13 14 -2 10 -17 25 -33 33 -16 8 -28 20 -27 26 2 7 -6 12 -17 12 -11 0
-20 3 -20 8 0 4 -16 18 -35 31 -19 13 -32 27 -29 32 3 5 2 9 -3 8 -16 -4 -43
13 -36 24 4 6 0 8 -9 5 -8 -4 -20 2 -26 13 -7 10 -18 19 -25 19 -7 0 -19 9
-27 20 -8 11 -18 20 -22 20 -4 0 -16 8 -26 18 -11 9 -32 26 -47 37 -16 11 -34
26 -41 33 -7 6 -18 12 -24 12 -6 0 -9 4 -6 9 3 5 -4 11 -15 14 -13 4 -18 10
-13 18 4 8 3 10 -5 5 -7 -5 -22 3 -37 19 -13 14 -24 22 -24 18 0 -4 -5 0 -11
10 -6 9 -14 15 -19 12 -5 -3 -11 4 -15 15 -4 11 -10 18 -15 15 -5 -3 -16 5
-24 17 -9 12 -16 19 -16 14 0 -5 -7 -3 -15 4 -8 7 -12 16 -9 21 3 5 2 8 -3 7
-11 -4 -83 44 -83 55 0 4 -7 7 -16 7 -8 0 -12 5 -9 10 3 6 -1 10 -9 10 -9 0
-16 5 -16 10 0 6 -9 10 -19 10 -11 0 -21 4 -23 9 -1 5 -16 -1 -33 -15z m57
-346 c11 -13 16 -16 12 -8 -4 8 6 2 22 -13 16 -16 41 -35 56 -43 16 -8 28 -21
28 -30 0 -8 4 -13 9 -9 6 3 19 -5 30 -17 12 -12 21 -18 21 -14 0 5 14 -6 30
-24 17 -18 30 -28 30 -24 1 5 9 -1 20 -14 11 -13 24 -21 30 -17 5 3 10 -1 10
-9 0 -8 5 -18 12 -22 7 -5 8 -2 3 7 -4 8 1 5 12 -6 11 -11 30 -27 43 -35 12
-8 29 -21 37 -29 7 -7 42 -34 76 -59 34 -25 64 -49 65 -54 2 -4 10 -8 18 -8 8
0 14 -4 14 -8 0 -5 11 -15 25 -22 14 -7 25 -20 25 -27 0 -8 5 -11 11 -7 8 4 8
0 0 -15 -8 -14 -8 -21 -1 -21 8 0 8 -6 0 -20 -8 -15 -8 -20 2 -20 10 0 10 -2
-1 -9 -9 -6 -10 -11 -2 -15 6 -4 8 -13 4 -19 -11 -19 -12 -57 -1 -57 7 0 7 -4
0 -13 -7 -8 -7 -18 -2 -27 5 -8 6 -19 2 -25 -10 -15 -9 -49 1 -56 6 -4 6 -13
1 -20 -11 -18 -12 -40 -2 -61 5 -9 4 -19 -1 -22 -7 -5 -8 -29 -1 -61 1 -5 1
-14 0 -20 -6 -26 -4 -51 4 -56 4 -4 3 -16 -3 -28 -8 -15 -9 -21 -1 -21 6 0 8
-5 3 -12 -11 -19 -12 -38 -2 -38 6 0 5 -8 -1 -20 -8 -14 -8 -20 0 -20 8 0 8
-6 0 -20 -6 -12 -7 -20 -1 -20 6 0 6 -11 1 -30 -5 -16 -5 -30 0 -30 10 0 8
-19 -3 -37 -5 -8 -3 -13 3 -13 7 0 8 -6 2 -17 -5 -10 -6 -27 -2 -38 4 -11 3
-26 -2 -32 -7 -9 -7 -13 1 -13 7 0 8 -8 1 -24 -5 -13 -6 -27 -3 -30 4 -3 2 -6
-3 -6 -5 0 -26 15 -46 34 -20 19 -39 31 -42 29 -3 -3 -8 2 -12 11 -3 9 -11 16
-16 16 -6 0 -21 11 -34 26 -13 14 -24 22 -24 19 0 -3 -10 3 -22 15 -12 11 -25
20 -28 20 -4 0 -6 39 -6 86 1 47 -2 88 -7 91 -4 2 -4 10 0 16 11 18 11 97 1
90 -6 -3 -7 2 -1 13 10 23 10 104 0 121 -4 6 -4 14 1 17 9 5 9 93 -1 102 -4 4
-3 12 0 18 11 17 14 98 3 91 -6 -3 -10 -1 -10 4 0 12 -36 51 -46 51 -4 0 -20
13 -35 30 -16 16 -29 27 -29 23 0 -3 -11 6 -25 21 -14 15 -25 24 -25 20 0 -3
-7 -1 -15 6 -8 7 -12 17 -8 24 3 6 3 8 -2 4 -4 -4 -14 0 -22 8 -8 8 -19 11
-25 8 -6 -4 -9 -3 -6 2 3 5 -3 17 -14 27 -10 9 -18 14 -18 11 0 -3 -13 8 -29
25 -16 17 -32 31 -36 31 -11 0 -34 27 -30 34 3 3 2 4 -2 1 -3 -3 -15 2 -24 11
-17 15 -19 15 -25 0 -3 -9 -10 -13 -15 -10 -5 3 -9 1 -9 -4 0 -14 -86 -72 -95
-64 -5 4 -5 2 -2 -4 4 -7 -1 -18 -10 -25 -14 -12 -16 -12 -9 1 4 8 -2 4 -13
-9 -12 -13 -21 -20 -21 -17 0 4 -11 -4 -23 -18 -13 -14 -27 -23 -30 -20 -3 3
-11 -4 -17 -16 -6 -12 -14 -19 -17 -16 -3 3 -11 0 -18 -7 -27 -25 -60 -52 -66
-52 -3 0 -12 -7 -21 -15 -32 -31 -59 -50 -68 -50 -7 0 -7 -7 0 -20 6 -11 7
-20 2 -20 -11 0 -9 -81 3 -99 5 -10 4 -12 -3 -7 -13 8 -12 -20 1 -41 5 -7 5
-13 0 -13 -4 0 -8 -108 -8 -240 1 -226 0 -240 -18 -246 -10 -3 -16 -8 -13 -12
5 -5 -56 -52 -68 -52 -6 0 -47 -33 -78 -62 -10 -10 -18 -15 -18 -10 0 4 -5 0
-10 -8 -8 -12 -10 -10 -10 8 0 16 -4 21 -13 16 -9 -6 -9 -5 0 7 6 8 10 37 8
66 -2 35 1 51 8 46 6 -4 7 -1 2 7 -12 19 -15 101 -4 94 5 -3 6 2 3 10 -3 9
-11 13 -18 9 -8 -5 -8 -3 0 8 6 8 10 44 10 82 -1 39 3 67 9 67 7 0 7 3 0 8
-13 9 -15 123 -2 115 6 -4 7 -1 2 8 -13 20 -14 160 -2 152 6 -4 7 -1 1 8 -12
20 -12 182 1 191 6 5 6 8 -2 8 -9 0 -11 12 -7 41 5 31 3 40 -6 34 -7 -4 -4 4
5 19 10 14 20 26 24 26 4 0 22 15 41 33 18 17 30 25 26 17 -4 -9 -2 -8 7 3 8
9 19 17 25 17 5 0 13 7 16 16 4 9 9 14 12 11 3 -3 14 2 23 11 41 39 63 52 73
46 6 -4 9 -3 6 2 -3 5 0 15 8 22 8 7 14 9 14 5 0 -4 7 1 15 11 8 11 15 16 15
11 0 -4 9 2 20 15 11 13 20 19 20 14 0 -5 5 -1 11 9 6 9 14 15 20 12 5 -4 9 1
9 9 0 10 6 13 17 9 11 -4 14 -3 9 5 -4 7 -1 12 7 12 8 0 18 7 21 16 3 8 9 13
13 11 11 -7 33 19 25 29 -4 4 -1 4 6 0 8 -5 19 -1 27 10 8 11 15 15 15 10 0
-5 11 3 24 17 13 14 27 23 30 20 3 -3 8 2 12 11 3 9 9 14 13 12 4 -3 16 6 26
19 25 30 32 30 57 3z m-2 -652 c0 4 9 -4 21 -17 11 -13 27 -23 35 -21 8 2 13
-3 12 -9 -2 -7 8 -18 21 -25 13 -7 28 -20 33 -28 5 -9 16 -16 25 -16 9 0 13
-3 10 -6 -3 -4 4 -15 18 -26 15 -12 23 -28 23 -47 -1 -15 3 -34 7 -41 5 -9 4
-11 -3 -6 -7 4 -12 3 -12 -3 0 -5 5 -13 10 -16 6 -4 7 -13 2 -23 -7 -15 -8
-68 -2 -82 1 -3 1 -9 0 -15 -6 -28 -5 -65 2 -65 4 0 5 -7 2 -15 -7 -17 -32 -7
-68 26 -11 11 -23 19 -28 19 -4 0 -21 13 -36 30 -16 16 -32 27 -35 23 -4 -3
-9 2 -13 11 -3 9 -12 16 -20 16 -8 0 -14 5 -14 10 0 6 -5 10 -11 10 -5 0 -8
-3 -6 -7 3 -5 -2 -15 -11 -23 -9 -8 -17 -13 -17 -10 0 3 -7 -1 -15 -8 -45 -38
-68 -56 -90 -70 -14 -9 -29 -22 -33 -29 -4 -7 -13 -13 -19 -13 -6 0 -17 -8
-24 -17 -16 -22 -15 -33 -17 157 l-2 155 28 28 c15 15 27 25 27 22 0 -3 8 3
18 13 11 9 17 21 14 26 -3 5 0 6 6 2 6 -4 20 2 32 14 11 11 25 20 32 20 6 0 9
3 5 6 -7 8 16 33 25 28 4 -3 12 5 18 16 9 16 15 18 30 10 11 -6 20 -8 20 -4z
m45 -713 c19 -18 35 -30 35 -26 0 4 5 0 11 -9 5 -10 17 -18 24 -18 8 0 15 -6
15 -13 0 -7 16 -21 35 -30 24 -11 33 -21 29 -32 -4 -9 -1 -15 7 -15 11 0 11
-3 -1 -10 -11 -7 -11 -10 -2 -10 9 0 10 -5 2 -19 -7 -13 -7 -22 0 -26 7 -4 6
-14 -1 -28 -9 -16 -9 -22 -1 -25 9 -3 9 -9 1 -24 -8 -16 -8 -19 1 -13 9 6 9 2
0 -15 -7 -12 -8 -25 -4 -29 11 -8 13 -52 3 -45 -12 7 -6 -50 6 -58 6 -5 6 -8
-2 -8 -6 0 -18 7 -27 15 -8 8 -19 15 -25 15 -5 0 -15 8 -20 18 -6 9 -11 13
-11 7 0 -5 -7 1 -16 13 -8 12 -20 20 -25 17 -5 -4 -9 0 -9 7 0 8 -18 25 -40
38 -22 14 -40 28 -40 33 0 15 -30 7 -30 -9 0 -8 -5 -12 -10 -9 -6 3 -13 -1
-16 -9 -3 -9 -10 -14 -14 -11 -5 3 -13 -3 -19 -12 -6 -10 -11 -14 -11 -8 0 5
-7 -1 -16 -13 -8 -12 -20 -20 -25 -17 -5 4 -9 -2 -9 -11 0 -10 -3 -15 -6 -11
-3 3 -16 -3 -28 -14 -43 -41 -53 -42 -58 -4 -2 20 0 35 7 35 6 0 7 3 0 8 -10
7 -14 222 -4 222 3 0 5 10 5 22 -1 13 5 23 12 23 7 0 17 7 22 15 5 8 10 11 10
6 0 -5 9 1 20 14 11 13 20 20 20 16 0 -4 12 6 26 21 14 15 22 21 18 13 -4 -8
10 3 31 25 20 22 34 33 31 25 -5 -12 -4 -11 5 1 17 23 52 12 94 -28z"/>
<path d="M2559 4248 c-6 -21 -5 -37 2 -32 5 3 9 0 9 -5 0 -6 5 -11 11 -11 5 0
7 4 4 10 -3 5 0 7 9 4 8 -3 17 -12 20 -20 3 -9 10 -13 14 -10 4 2 7 -16 6 -42
-1 -26 -3 -47 -4 -47 -3 0 -12 -38 -13 -57 -1 -10 -4 -18 -8 -18 -4 0 -6 -8
-5 -17 2 -10 -1 -25 -5 -33 -6 -12 -17 -51 -32 -115 -2 -5 -5 -14 -8 -20 -4
-5 -5 -20 -4 -32 1 -13 -1 -23 -5 -23 -5 0 -32 -94 -34 -122 -1 -3 -4 -10 -8
-14 -5 -4 -8 -18 -8 -31 0 -12 -4 -23 -9 -23 -4 0 -8 -8 -8 -17 1 -18 -10 -65
-20 -93 -8 -19 -11 -30 -17 -58 -3 -12 -8 -27 -12 -34 -5 -7 -3 -8 7 -3 11 7
12 6 2 -7 -7 -8 -10 -18 -6 -21 3 -4 1 -7 -5 -7 -7 0 -11 -3 -11 -7 1 -5 0
-11 -1 -15 -1 -5 -3 -11 -4 -15 -7 -30 -19 -53 -27 -53 -6 0 -7 -4 -4 -10 3
-5 2 -10 -4 -10 -5 0 -17 -7 -26 -17 -14 -14 -18 -14 -26 -2 -7 12 -9 12 -9
-1 0 -13 -1 -13 -10 0 -8 13 -10 12 -10 -3 0 -10 -4 -15 -10 -12 -5 3 -7 0 -4
-8 8 -21 41 -27 55 -11 7 9 16 11 23 5 6 -4 20 -7 30 -5 11 1 28 -1 37 -7 12
-6 20 -5 24 1 4 6 19 9 33 7 15 -3 33 1 41 7 11 8 13 8 8 0 -4 -7 4 -14 20
-17 26 -5 27 -4 8 10 -19 15 -19 15 3 8 13 -4 40 -8 61 -9 20 -1 43 -6 51 -11
10 -6 12 -4 7 8 -4 11 -2 14 7 11 7 -3 34 -6 60 -7 37 -2 45 1 41 12 -4 10 2
8 16 -5 12 -10 19 -13 15 -6 -4 6 -2 12 3 12 21 0 26 2 39 12 6 6 12 7 12 4 0
-4 10 2 22 14 12 11 27 20 33 20 5 0 19 12 30 27 11 14 25 31 30 37 12 13 46
87 45 99 0 4 6 23 14 41 9 21 11 36 5 38 -7 2 -7 13 0 31 7 18 7 26 1 22 -6
-4 -10 6 -10 22 0 16 -5 34 -12 41 -7 7 -9 12 -4 12 4 0 1 6 -6 14 -7 7 -20
23 -28 35 -8 11 -21 21 -29 21 -8 0 -11 3 -8 7 10 9 -25 32 -49 33 -12 0 -24
8 -26 18 -4 13 1 18 20 20 14 1 29 8 34 15 6 9 8 9 8 -1 0 -7 5 -10 10 -7 6 4
8 10 6 14 -3 4 5 8 17 8 12 1 23 7 25 13 2 5 7 8 12 5 4 -2 28 16 54 40 25 25
40 45 33 45 -9 0 -9 2 0 8 22 14 40 76 41 140 0 34 -3 60 -8 57 -4 -3 -6 3 -3
13 3 11 -7 31 -25 50 -16 17 -27 34 -23 38 3 4 1 4 -6 1 -6 -4 -19 0 -27 9 -9
8 -16 12 -16 9 0 -4 -12 0 -26 10 -15 9 -23 12 -20 6 4 -6 2 -11 -3 -11 -6 0
-11 6 -11 13 0 7 -3 8 -8 2 -9 -13 -35 -18 -27 -5 9 14 -8 13 -24 -2 -11 -10
-13 -10 -7 0 4 6 3 12 -3 12 -5 0 -12 -6 -14 -12 -4 -10 -6 -10 -6 0 -1 6 -6
12 -12 12 -5 0 -8 -4 -5 -8 3 -5 -1 -9 -9 -9 -8 0 -12 4 -9 9 8 13 -10 10 -25
-4 -11 -10 -13 -10 -7 0 8 14 -3 16 -24 2 -9 -5 -19 -5 -27 2 -10 8 -13 7 -13
-3 0 -11 -2 -11 -10 1 -9 13 -10 13 -10 0 0 -13 -1 -13 -10 0 -9 13 -11 13
-20 0 -6 -10 -10 -11 -10 -2 0 6 -7 12 -16 12 -8 0 -13 -4 -10 -8 3 -5 -1 -9
-9 -9 -8 0 -12 4 -9 9 8 12 -10 10 -23 -3 -8 -8 -13 -8 -17 0 -10 15 -29 14
-20 -1 6 -10 4 -10 -7 0 -12 11 -28 16 -30 10z m301 -70 c0 6 7 12 16 12 8 0
12 -4 9 -10 -3 -5 0 -7 8 -4 25 9 70 -72 68 -121 -2 -48 -30 -145 -41 -145 -6
0 -10 -8 -10 -17 -1 -23 -70 -93 -95 -97 -11 -2 -19 -8 -18 -12 2 -15 -62 -12
-75 3 -7 7 -9 13 -3 13 5 0 8 11 6 25 -1 15 4 29 14 35 9 5 13 10 9 10 -4 0 2
30 12 67 10 37 17 70 14 74 -2 4 0 9 6 11 5 1 11 15 12 31 1 15 6 27 10 27 4
0 5 9 3 20 -2 11 0 22 5 25 4 3 7 13 6 23 -4 22 26 45 36 29 6 -9 8 -9 8 1z
m-110 -473 c0 -5 5 -3 10 5 6 9 10 11 10 3 0 -7 6 -10 13 -7 15 6 70 -52 76
-81 9 -41 1 -185 -11 -185 -3 0 -5 -11 -4 -24 2 -14 -5 -29 -15 -37 -11 -7
-19 -20 -19 -28 0 -18 -71 -86 -97 -94 -10 -2 -27 -8 -37 -13 -14 -5 -17 -4
-12 4 4 7 2 12 -3 12 -6 0 -11 -4 -11 -10 0 -5 -7 -6 -17 -3 -12 5 -14 3 -8
-7 6 -10 4 -11 -6 -4 -8 4 -20 9 -27 10 -22 4 -23 9 -11 40 6 16 13 37 15 47
2 9 6 27 10 40 3 12 7 32 10 44 2 12 9 34 14 48 5 14 7 25 4 25 -4 0 -1 7 6
15 7 9 10 18 7 22 -4 3 -2 12 4 20 6 7 8 13 5 13 -4 0 -2 9 4 19 5 11 12 32
14 48 2 15 6 36 10 46 3 9 8 23 10 30 4 14 56 17 56 2z"/>
<path d="M4746 4237 c4 -11 -1 -13 -19 -10 -14 3 -28 0 -32 -7 -5 -8 -11 -8
-23 2 -12 10 -14 10 -8 1 4 -8 2 -13 -4 -13 -6 0 -10 -8 -8 -17 2 -10 8 -18
13 -18 22 0 34 -17 31 -43 -4 -35 -45 -201 -56 -227 -5 -11 -13 -40 -19 -65
-7 -25 -14 -54 -17 -65 -3 -11 -6 -26 -6 -32 -1 -7 -5 -13 -10 -13 -5 0 -6 -5
-3 -10 4 -6 2 -16 -3 -23 -5 -7 -10 -19 -10 -27 -1 -21 -7 -43 -13 -55 -4 -5
-5 -18 -4 -27 2 -10 -1 -18 -7 -18 -6 0 -8 -7 -5 -15 4 -8 2 -17 -4 -20 -5 -4
-7 -10 -4 -15 3 -5 1 -11 -5 -15 -6 -4 -8 -11 -4 -16 3 -5 0 -16 -6 -24 -7 -8
-10 -22 -6 -30 3 -8 2 -15 -3 -15 -5 0 -12 -15 -16 -32 -11 -46 -11 -47 -28
-105 -8 -28 -13 -54 -10 -57 4 -3 2 -6 -3 -6 -5 0 -9 -10 -9 -23 0 -18 6 -22
33 -24 21 -1 30 2 26 9 -5 7 -2 8 7 3 22 -14 60 -15 52 -2 -4 8 -1 7 9 -1 18
-14 25 -8 32 31 2 15 7 30 10 35 3 5 8 22 11 38 3 16 7 34 9 41 1 7 5 16 9 19
4 4 7 19 7 33 1 25 38 106 40 86 0 -5 8 2 16 18 14 27 40 39 31 15 -2 -7 0
-21 4 -30 6 -10 5 -19 -1 -23 -8 -5 -8 -11 -1 -19 6 -7 12 -36 13 -64 2 -29 8
-52 13 -52 6 0 3 -5 -5 -10 -8 -5 -10 -10 -4 -10 6 0 12 -11 12 -25 0 -31 29
-95 45 -96 7 -1 22 -3 34 -4 12 -1 20 2 17 6 -3 5 4 9 15 9 12 0 20 6 18 13
-1 6 3 11 9 10 6 -1 17 9 24 22 7 14 16 25 20 25 4 0 15 18 25 40 10 22 22 40
28 40 5 0 7 7 3 15 -3 8 -1 15 5 15 6 0 5 8 -2 22 -11 20 -12 20 -30 -19 -21
-46 -48 -74 -50 -52 -1 8 -1 17 0 22 0 4 -3 7 -7 7 -7 0 -11 16 -14 58 -1 6
-6 12 -12 12 -6 0 -4 5 4 10 8 5 10 10 4 10 -5 0 -11 21 -13 47 -1 26 -8 51
-14 55 -7 4 -7 8 -2 8 6 0 11 9 11 20 0 11 -3 20 -6 20 -3 0 -6 23 -6 51 1 37
6 53 19 60 9 6 17 17 17 25 0 8 4 13 9 9 5 -3 12 4 16 15 4 11 11 18 16 15 5
-4 9 1 9 10 0 9 4 14 8 11 5 -3 14 4 22 14 8 10 17 17 22 14 4 -3 8 -1 8 5 0
6 10 15 21 22 17 9 20 8 13 -3 -6 -9 -3 -9 11 2 10 8 20 14 22 13 1 -2 3 -1 3
2 0 3 0 12 0 20 0 9 -6 12 -17 8 -11 -4 -14 -3 -9 6 6 9 3 9 -13 -1 -18 -11
-23 -11 -31 2 -5 8 -10 10 -10 5 0 -6 -9 -11 -20 -12 -13 -1 -18 2 -13 10 4 7
0 6 -10 -2 -12 -9 -17 -10 -17 -2 0 7 -5 9 -10 6 -6 -4 -7 -11 -4 -17 4 -5 -4
-4 -17 3 -38 20 -66 18 -65 -6 1 -11 6 -20 11 -20 6 -1 21 -7 34 -14 19 -10
21 -15 10 -22 -8 -5 -10 -9 -5 -9 5 0 3 -7 -4 -15 -7 -8 -9 -15 -4 -15 5 0 1
-5 -8 -11 -10 -5 -18 -14 -18 -19 0 -10 -11 -23 -77 -98 -18 -21 -33 -41 -33
-45 0 -5 -4 -5 -10 -2 -8 5 -13 -4 -12 -25 0 -3 -10 -13 -23 -22 -22 -17 -23
-17 -20 0 2 9 4 19 5 22 1 3 2 8 1 13 -1 4 6 24 14 43 8 20 12 40 9 45 -3 5 0
9 6 9 6 0 8 4 5 10 -3 5 -1 18 4 28 5 10 12 29 14 43 2 13 7 31 10 39 4 8 8
26 11 40 2 14 11 42 20 63 8 21 11 35 5 31 -7 -4 -7 2 1 15 6 12 13 30 15 39
1 9 9 37 16 62 7 25 13 47 13 50 1 3 4 10 7 15 4 6 5 18 4 28 -2 9 0 17 4 17
4 0 8 6 9 13 2 21 7 42 15 53 11 18 -3 24 -60 24 -37 0 -52 -4 -47 -11 4 -8 0
-8 -15 0 -17 9 -20 9 -15 -2z"/>
<path d="M3464 3895 c-4 -8 -10 -12 -15 -9 -10 6 -153 -138 -154 -156 0 -3
-10 -18 -21 -35 -12 -16 -22 -33 -23 -37 -1 -4 -11 -29 -22 -55 -21 -48 -30
-77 -31 -100 -1 -7 -5 -13 -9 -13 -4 0 -6 -9 -4 -20 2 -11 0 -20 -4 -20 -20 0
-16 -191 5 -233 22 -43 51 -70 57 -54 4 9 6 9 6 -1 1 -9 6 -10 20 -3 10 6 21
7 25 4 3 -3 6 -1 6 6 0 7 4 9 10 6 5 -3 24 11 42 31 18 20 41 45 51 55 9 11
17 20 16 22 -3 10 23 57 31 57 6 0 9 4 5 9 -3 5 0 13 6 16 11 7 8 -19 -6 -75
-12 -43 -7 -99 9 -116 9 -8 16 -12 16 -8 0 5 5 3 11 -3 8 -8 20 -8 35 -3 17 7
24 6 24 -3 0 -6 7 -3 15 7 8 11 15 16 15 12 0 -4 17 10 38 30 20 20 36 40 34
45 -1 5 2 9 8 9 9 0 41 54 39 66 0 4 4 10 10 13 6 4 7 12 1 21 -7 11 -10 12
-10 2 0 -7 -5 -10 -12 -6 -7 4 -8 3 -4 -5 4 -6 0 -14 -8 -17 -9 -3 -13 -10
-10 -15 3 -5 0 -9 -6 -9 -6 0 -8 -5 -5 -10 4 -6 1 -9 -7 -8 -7 2 -12 -2 -11
-7 1 -6 -7 -11 -17 -12 -21 -2 -30 23 -18 47 10 21 42 133 40 143 -1 4 4 23
12 42 8 19 13 35 11 35 -2 0 3 19 12 43 14 39 22 73 25 105 1 6 5 12 9 12 5 0
6 7 3 15 -4 8 -1 15 6 15 6 0 9 4 5 10 -3 5 1 25 9 45 8 19 12 35 9 35 -3 0 2
11 11 24 10 17 12 27 5 31 -6 4 -8 14 -5 24 5 14 4 14 -6 1 -13 -15 -84 -20
-106 -6 -12 7 -32 -23 -32 -47 0 -8 -7 -21 -17 -28 -14 -12 -16 -12 -11 1 5
14 -27 90 -38 90 -3 0 -2 -4 1 -10 3 -5 1 -10 -4 -10 -6 0 -11 4 -11 9 0 11
-19 9 -39 -3 -10 -6 -12 -5 -7 2 4 7 2 12 -4 12 -6 0 -13 -7 -16 -15z m76 -50
c5 3 12 -11 16 -31 10 -53 10 -114 1 -114 -5 0 -5 -4 -2 -10 3 -5 0 -10 -7
-10 -9 0 -9 -3 2 -10 9 -6 11 -10 3 -10 -7 0 -10 -6 -7 -14 3 -7 -1 -20 -8
-27 -7 -8 -13 -26 -13 -41 1 -16 -3 -28 -7 -28 -4 0 -8 -6 -8 -13 0 -7 -8 -28
-19 -47 -10 -19 -18 -37 -18 -40 0 -12 -44 -88 -68 -114 -32 -37 -58 -40 -72
-9 -8 17 -8 23 0 23 7 0 5 5 -3 10 -8 5 -10 10 -5 10 6 0 9 19 9 42 -1 24 3
56 8 73 6 16 10 38 10 47 -1 10 4 20 9 23 5 4 7 11 4 16 -4 5 -2 9 4 9 5 0 8
8 7 18 -2 9 4 27 12 40 8 12 12 22 8 22 -3 0 12 34 34 76 40 77 91 137 98 115
2 -6 8 -9 12 -6z"/>
<path d="M4052 3903 c-6 -3 -9 -9 -6 -15 4 -6 -2 -5 -15 1 -16 9 -21 9 -21 0
0 -7 -3 -9 -7 -6 -3 4 -13 1 -21 -6 -11 -8 -13 -8 -9 0 5 7 0 9 -13 6 -11 -3
-20 -9 -20 -13 0 -4 -11 -6 -25 -5 -24 3 -37 -7 -48 -37 -6 -16 8 -19 29 -6
13 8 36 -35 29 -54 -2 -7 -7 -26 -10 -43 -8 -38 -13 -60 -15 -60 -1 0 -3 -7
-5 -15 -20 -85 -31 -120 -37 -120 -4 0 -5 -9 -3 -20 2 -11 -1 -20 -7 -20 -6 0
-8 -3 -5 -7 4 -3 1 -13 -6 -21 -10 -13 -9 -14 3 -7 12 6 13 5 3 -6 -7 -7 -13
-22 -13 -34 0 -12 -4 -25 -9 -31 -6 -5 -12 -22 -15 -39 -2 -16 -5 -32 -7 -35
-1 -3 -3 -9 -4 -15 -1 -5 -4 -17 -8 -25 -25 -67 -27 -100 -6 -100 6 0 7 4 4
10 -3 6 1 7 9 4 9 -3 16 -11 16 -18 0 -6 5 -3 11 7 6 9 15 15 20 11 5 -3 23
-7 40 -9 24 -3 32 0 36 15 3 11 8 20 12 20 4 0 7 8 8 18 1 9 4 31 8 47 4 17 8
37 10 45 2 8 4 16 5 18 2 1 4 7 5 12 1 6 3 11 5 13 1 1 3 9 5 17 1 9 13 38 26
65 13 28 22 53 21 58 -1 4 3 7 9 7 5 0 8 4 5 9 -4 5 -3 11 1 13 10 4 48 58 56
81 3 9 11 17 17 17 6 0 9 4 6 9 -3 5 1 14 9 21 8 7 15 19 15 26 0 8 3 13 8 12
9 -4 52 39 46 45 -3 2 7 7 21 9 26 5 53 -21 37 -37 -4 -3 -7 -10 -8 -13 -1
-23 -18 -79 -25 -88 -5 -6 -11 -24 -13 -40 -2 -16 -8 -40 -14 -54 -5 -14 -8
-28 -5 -32 2 -5 0 -8 -6 -8 -6 0 -8 -7 -5 -15 4 -8 1 -15 -7 -15 -7 0 -10 -3
-6 -6 3 -3 -1 -23 -8 -45 -8 -21 -11 -39 -8 -39 3 0 -2 -10 -13 -22 -10 -12
-13 -18 -6 -14 6 4 12 2 12 -3 0 -6 -4 -11 -8 -11 -13 0 -6 -98 8 -115 7 -8
19 -15 27 -15 8 0 11 -5 7 -12 -4 -7 -3 -8 4 -4 7 4 21 9 31 11 15 3 18 0 14
-12 -5 -13 -2 -12 15 3 12 10 32 29 46 41 13 12 27 19 30 16 3 -4 6 1 6 9 0 9
7 19 16 22 8 3 12 10 9 16 -3 5 -1 10 4 10 6 0 11 6 11 14 0 8 7 17 16 20 8 3
12 10 9 16 -3 5 -2 10 4 10 15 0 2 27 -15 34 -8 3 -12 1 -9 -4 3 -5 -3 -18
-14 -29 -11 -11 -17 -22 -14 -25 3 -3 -2 -8 -11 -12 -9 -3 -14 -10 -11 -14 3
-4 -2 -11 -11 -14 -8 -3 -12 -2 -9 4 3 6 2 10 -3 10 -10 0 -7 27 5 60 4 8 8
26 10 40 2 13 8 27 11 30 4 3 8 12 8 20 0 8 3 22 6 30 8 21 17 49 19 58 0 4 6
16 12 27 6 11 12 33 14 49 2 17 7 32 11 35 4 4 8 15 9 26 4 31 8 49 14 60 3 6
5 25 4 43 -1 17 4 32 9 32 6 0 6 4 -1 8 -7 5 -14 20 -15 35 -1 15 -8 29 -16
32 -7 3 -10 10 -6 17 5 8 2 9 -11 4 -10 -4 -21 -2 -25 5 -6 8 -13 8 -29 0 -12
-7 -25 -9 -30 -7 -5 3 -11 -1 -15 -9 -3 -8 -12 -15 -20 -15 -7 0 -17 -7 -20
-16 -3 -8 -10 -12 -16 -9 -5 3 -10 -1 -10 -10 0 -9 -4 -13 -10 -10 -5 3 -10 0
-10 -7 0 -7 -14 -28 -31 -45 -16 -18 -26 -33 -22 -33 4 0 3 -4 -3 -8 -6 -4
-23 -28 -38 -54 -15 -27 -32 -48 -38 -48 -5 0 -6 -4 -3 -10 3 -5 2 -10 -3 -10
-19 0 -21 14 -7 37 9 13 13 23 9 23 -4 0 -1 6 5 14 9 11 9 15 -1 19 -9 4 -10
6 -1 6 7 1 18 28 25 61 6 33 15 60 18 60 3 0 7 18 8 40 3 38 -9 52 -24 29 -4
-7 -9 -7 -13 -2 -3 6 -12 8 -19 6z"/>
<path d="M2381 2973 c3 -20 -2 -27 -10 -14 -8 13 -12 13 -27 0 -16 -12 -17
-12 -9 1 6 12 5 12 -5 4 -6 -7 -13 -24 -13 -38 -1 -14 -5 -26 -8 -26 -3 0 -6
-6 -7 -12 -1 -19 -9 -50 -21 -82 -7 -16 -9 -31 -6 -34 2 -3 0 -11 -6 -19 -6
-7 -8 -13 -4 -13 4 0 1 -8 -6 -17 -12 -15 -12 -16 1 -8 12 7 12 5 -1 -11 -9
-10 -15 -29 -14 -41 1 -13 -2 -23 -6 -23 -3 0 -9 -15 -13 -32 -5 -30 -12 -56
-16 -68 -1 -3 -2 -9 -1 -14 1 -4 -3 -14 -10 -22 -6 -7 -8 -18 -4 -24 3 -5 1
-10 -4 -10 -6 0 -10 -3 -10 -7 1 -5 0 -10 -1 -13 -2 -6 -7 -33 -14 -72 -2 -15
-7 -32 -11 -37 -6 -11 -12 -35 -22 -86 -2 -16 -9 -35 -15 -42 -5 -7 -7 -17 -4
-22 4 -5 2 -12 -4 -16 -6 -4 -8 -10 -5 -15 3 -5 1 -11 -4 -15 -6 -3 -8 -12 -4
-20 3 -8 -1 -15 -8 -15 -7 0 -9 -3 -6 -6 3 -4 2 -16 -4 -27 -9 -15 -8 -18 3
-11 10 6 11 5 1 -8 -7 -8 -10 -18 -6 -21 3 -4 2 -7 -3 -7 -5 0 -11 -12 -12
-27 -1 -15 -6 -29 -10 -32 -4 -3 -8 -13 -8 -21 -1 -24 -16 -74 -27 -87 -6 -9
-6 -13 1 -13 6 0 2 -16 -7 -36 -21 -43 -22 -75 -2 -82 9 -3 11 0 6 8 -6 9 -3
9 12 1 11 -6 23 -7 27 -4 10 10 46 11 46 1 0 -5 10 -4 21 3 15 8 19 8 15 0 -9
-14 0 -14 26 0 15 8 19 8 14 0 -9 -14 0 -14 26 0 15 8 19 8 14 0 -9 -14 36
-10 46 4 5 6 8 6 8 -2 0 -13 18 -12 39 1 10 6 12 5 7 -2 -9 -14 3 -15 24 -2 9
5 19 5 27 -2 10 -8 13 -7 13 3 0 9 3 10 8 4 4 -6 16 -11 27 -11 11 0 23 5 27
11 5 6 8 5 8 -4 0 -11 3 -11 17 0 11 10 14 10 9 2 -8 -15 3 -17 24 -4 8 6 19
7 25 3 18 -11 35 -11 35 1 0 8 3 7 9 -2 7 -10 13 -11 31 -1 15 8 20 8 16 1 -4
-6 -3 -11 3 -11 5 0 12 4 15 9 3 5 19 8 35 7 16 -1 29 1 28 5 -1 4 2 7 7 7 5
0 13 6 17 14 7 10 9 10 9 -2 1 -12 3 -11 11 3 5 9 17 17 24 17 8 0 15 5 15 11
0 5 4 8 9 4 6 -3 14 3 20 12 6 10 11 14 11 9 0 -21 94 92 121 147 16 31 27 57
24 57 -3 0 -1 8 4 18 5 10 12 40 15 65 4 26 7 51 7 55 1 4 1 9 0 12 -1 3 -4
29 -6 58 -2 29 -9 59 -15 67 -7 8 -9 15 -4 15 4 0 -3 11 -15 24 l-23 24 39 39
c42 42 76 97 66 107 -3 3 -2 6 4 6 6 0 14 15 18 33 4 17 9 39 11 47 3 8 5 23
6 33 1 9 6 17 11 17 4 0 5 6 0 13 -12 19 -12 37 -1 37 7 0 7 4 0 13 -7 8 -7
18 -2 27 5 8 5 19 1 25 -5 5 -14 28 -21 49 -7 22 -21 49 -31 60 -11 11 -19 23
-19 28 0 4 -7 8 -15 8 -8 0 -15 5 -15 12 0 6 -3 8 -7 5 -3 -4 -15 0 -25 10
-10 9 -18 12 -18 7 0 -5 -5 -2 -10 6 -8 12 -10 12 -10 1 0 -11 -3 -11 -15 -1
-8 7 -15 9 -15 5 0 -4 -8 -1 -17 6 -15 12 -16 12 -8 -1 8 -13 7 -13 -8 -1 -14
11 -17 11 -17 0 0 -12 -2 -12 -9 0 -6 9 -10 10 -16 2 -5 -9 -10 -9 -21 0 -8 6
-17 9 -21 6 -3 -4 -12 -2 -19 4 -11 9 -15 7 -20 -5 -6 -15 -8 -15 -19 1 -13
17 -14 17 -20 1 -4 -10 -11 -15 -16 -12 -5 3 -6 11 -2 17 3 7 -3 4 -14 -6 -11
-9 -23 -14 -27 -10 -13 13 -116 12 -109 -1 4 -6 -1 -5 -11 3 -14 12 -19 12
-26 2 -6 -11 -8 -11 -12 0 -4 12 -8 11 -23 -1 -14 -11 -17 -12 -11 -1 6 9 5
12 -5 9 -8 -3 -22 -1 -32 4 -9 5 -17 5 -16 1z m314 -293 c4 -6 11 -7 17 -4 6
4 14 0 19 -7 6 -10 9 -11 9 -1 0 6 5 12 11 12 5 0 7 -4 4 -10 -3 -5 0 -7 9 -4
27 10 33 -69 7 -100 -6 -7 -8 -15 -5 -19 3 -3 -3 -10 -14 -16 -11 -6 -22 -8
-25 -4 -4 3 -9 -2 -13 -11 -3 -9 -10 -16 -16 -16 -5 0 -7 4 -4 9 3 5 -3 11
-15 14 -17 5 -18 3 -8 -9 10 -12 10 -15 -2 -12 -8 2 -17 8 -21 13 -5 6 -8 5
-8 -2 0 -9 -7 -10 -25 -3 -17 7 -25 6 -25 -1 0 -8 -5 -7 -15 1 -9 7 -18 10
-22 6 -3 -3 0 -6 7 -6 7 0 10 -3 7 -6 -4 -4 -13 -1 -22 6 -12 10 -15 10 -15 0
0 -9 -4 -9 -17 1 -11 10 -14 10 -9 2 4 -7 3 -13 -2 -13 -12 0 -22 36 -13 45 3
4 7 11 7 16 1 5 3 12 4 17 1 4 3 12 4 17 7 35 20 65 28 65 5 0 7 4 4 9 -8 13
48 10 56 -3 5 -7 8 -7 8 0 0 11 51 11 69 0 5 -4 13 -1 17 5 4 8 3 9 -4 5 -7
-4 -12 -2 -12 3 0 14 17 14 25 1z m-261 -442 c-5 -9 -2 -9 9 1 14 11 17 11 17
0 0 -9 3 -10 8 -4 11 15 32 17 32 3 0 -9 4 -8 10 2 9 13 11 13 20 0 6 -10 10
-11 10 -2 0 14 21 12 32 -3 5 -6 8 -5 8 4 0 10 3 11 13 3 7 -6 18 -7 27 -2 8
5 22 2 37 -7 13 -8 23 -11 23 -7 1 5 8 -4 16 -19 16 -30 11 -107 -7 -107 -6 0
-8 -3 -6 -7 3 -5 -5 -17 -16 -28 -11 -12 -17 -14 -13 -5 4 8 -2 5 -13 -8 -11
-13 -25 -21 -30 -18 -5 4 -12 2 -15 -2 -3 -5 -30 -8 -61 -7 -30 2 -58 -2 -61
-7 -4 -5 -10 -5 -17 0 -7 6 -32 9 -56 8 -45 -2 -68 17 -40 35 8 5 11 9 8 9 -4
0 -3 17 3 38 5 20 10 43 10 50 1 6 5 12 9 12 4 0 6 8 5 18 -3 19 21 62 36 62
5 0 6 -6 2 -12z"/>
<path d="M3327 2962 c6 -15 5 -15 -10 -4 -14 12 -19 12 -33 -2 -16 -16 -57
-136 -47 -136 3 0 0 -7 -7 -15 -7 -8 -10 -15 -7 -15 4 0 0 -18 -8 -40 -8 -22
-12 -40 -8 -40 3 0 0 -6 -6 -14 -16 -19 -3 -50 15 -35 11 9 14 9 14 0 0 -9 5
-9 20 -1 11 6 20 7 20 3 0 -10 91 -10 107 0 6 4 13 2 15 -4 3 -9 9 -9 25 0 16
8 24 8 29 0 4 -8 9 -7 15 2 7 11 9 11 9 1 0 -7 5 -10 11 -6 8 4 8 1 1 -12 -6
-11 -10 -22 -11 -26 -1 -5 -1 -9 -2 -10 -1 -2 -2 -14 -4 -28 -2 -14 -13 -56
-24 -95 -22 -74 -32 -112 -33 -132 -1 -7 -4 -13 -8 -13 -6 0 -10 -16 -11 -52
0 -10 -5 -20 -10 -23 -5 -4 -7 -11 -4 -16 4 -5 0 -9 -7 -9 -9 0 -9 -3 2 -10 8
-5 10 -10 5 -10 -10 0 -14 -14 -17 -57 -1 -7 -4 -13 -8 -13 -4 0 -7 -6 -8 -12
-1 -22 -12 -72 -19 -88 -3 -8 -8 -24 -10 -35 -3 -11 -6 -24 -7 -30 -2 -5 -6
-23 -10 -40 -4 -16 -10 -37 -14 -45 -3 -8 -7 -22 -8 -30 -11 -54 -29 -116 -37
-121 -5 -4 5 -11 22 -17 22 -8 31 -8 31 0 0 6 7 5 17 -3 9 -8 14 -9 10 -3 -4
7 4 11 23 10 17 -1 30 -5 30 -10 0 -5 7 -3 15 4 12 10 15 10 15 -1 0 -9 3 -10
8 -4 10 14 42 15 42 1 0 -6 5 -4 10 4 7 11 10 11 10 2 0 -10 5 -10 23 -1 12 7
24 11 27 10 3 -1 9 15 13 36 5 21 11 45 14 53 3 8 7 24 8 35 2 11 7 32 14 48
6 15 8 27 5 27 -4 0 0 8 7 17 12 15 12 16 -1 8 -13 -8 -13 -7 0 9 8 10 15 23
17 30 1 6 5 25 9 41 4 17 7 38 8 48 0 9 3 17 6 17 11 0 32 99 24 111 -4 8 -3
9 4 5 11 -6 18 19 13 47 0 4 3 7 8 7 6 0 8 9 6 20 -2 11 -1 20 3 20 4 0 9 12
10 26 1 14 5 31 9 37 4 7 9 21 11 32 2 11 5 25 6 30 2 6 7 29 11 53 4 23 10
42 14 42 6 0 11 26 14 68 0 7 11 24 25 39 19 21 26 23 33 12 7 -12 9 -12 9 1
0 12 2 12 9 2 11 -19 15 -19 35 -3 12 10 20 11 24 4 8 -11 41 -11 60 1 7 4 12
2 12 -4 0 -7 6 -8 17 -1 10 5 26 5 40 0 18 -7 25 -4 35 14 7 12 14 27 14 32 1
6 3 13 4 18 1 4 4 12 5 17 1 6 4 12 5 15 5 10 8 25 9 51 0 14 5 23 9 20 5 -3
8 7 7 22 -1 15 4 38 12 50 8 13 12 26 9 29 -3 3 -1 13 4 23 7 13 5 17 -8 17
-9 0 -20 -5 -24 -11 -5 -7 -8 -7 -8 2 0 7 -5 10 -10 7 -6 -4 -16 -2 -23 4 -7
6 -18 6 -26 1 -8 -4 -21 -6 -29 -2 -11 4 -13 2 -7 -9 7 -11 5 -11 -10 1 -14
12 -19 12 -23 2 -3 -10 -7 -10 -16 2 -10 14 -14 14 -39 1 -15 -8 -25 -10 -22
-5 4 6 -1 10 -9 10 -8 0 -18 -4 -21 -10 -9 -14 -21 -12 -39 6 -15 14 -16 14
-16 -1 0 -9 -5 -13 -10 -10 -6 4 -7 12 -3 18 3 7 -4 3 -17 -8 -13 -11 -20 -15
-17 -9 4 7 -3 12 -18 12 -14 0 -25 -6 -25 -12 0 -6 -7 -2 -15 8 -13 18 -20 15
-16 -6 2 -12 -6 -9 -23 8 -15 14 -16 14 -16 -1 0 -9 -5 -13 -10 -10 -6 4 -7
12 -3 18 3 7 -2 4 -13 -5 -15 -13 -23 -15 -32 -6 -8 8 -15 8 -26 -1 -11 -9
-16 -9 -22 0 -5 8 -3 9 6 4 9 -5 11 -4 6 4 -5 8 -12 9 -19 3 -7 -5 -22 -8 -35
-6 -17 3 -21 0 -16 -8 6 -10 4 -9 -8 0 -12 9 -22 10 -35 4 -22 -12 -46 -4 -36
11 4 7 -1 6 -10 -2 -14 -11 -23 -11 -42 -3 -21 10 -23 9 -18 -6z"/>
<path d="M4330 2973 c0 -7 -11 -10 -26 -7 -19 3 -24 1 -18 -8 6 -11 5 -11 -8
0 -9 7 -22 11 -29 10 -18 -4 -50 -49 -43 -60 3 -5 0 -16 -7 -24 -6 -8 -9 -17
-6 -21 4 -3 2 -12 -4 -20 -6 -7 -9 -13 -6 -13 4 0 0 -18 -8 -40 -8 -22 -12
-40 -8 -40 3 0 0 -7 -7 -15 -6 -8 -9 -19 -5 -25 3 -5 2 -10 -2 -10 -5 0 -10
-14 -11 -32 -2 -18 -6 -35 -10 -38 -7 -5 -13 -24 -15 -52 -1 -10 -4 -18 -8
-18 -4 0 -6 -8 -4 -17 1 -10 -1 -25 -6 -34 -8 -16 -20 -63 -21 -86 -1 -7 -6
-13 -11 -13 -6 0 -7 -3 -4 -7 4 -3 1 -13 -6 -21 -10 -13 -9 -14 3 -7 13 8 13
7 1 -8 -7 -9 -10 -17 -6 -17 4 0 2 -7 -5 -15 -7 -8 -9 -15 -5 -15 4 0 3 -6 -2
-12 -6 -7 -9 -21 -8 -30 2 -10 0 -18 -4 -18 -4 0 -8 -6 -9 -12 -1 -18 -7 -44
-28 -113 -10 -33 -17 -66 -16 -72 2 -7 -1 -13 -7 -13 -5 0 -8 -8 -6 -17 1 -10
-2 -24 -8 -30 -5 -7 -7 -13 -3 -13 3 0 0 -16 -8 -35 -8 -19 -12 -35 -8 -35 3
0 1 -5 -5 -11 -6 -6 -9 -18 -6 -25 3 -8 0 -14 -7 -14 -6 0 -9 -4 -6 -9 4 -5 1
-22 -4 -37 -6 -14 -13 -42 -16 -60 l-5 -34 114 2 c62 1 118 -1 124 -5 12 -8
49 30 40 40 -4 3 -2 12 4 20 6 7 9 13 6 13 -3 0 1 17 10 38 8 20 15 38 14 40
0 1 -1 3 0 5 0 1 3 15 5 31 3 16 9 37 13 45 5 9 7 26 6 38 -1 12 2 20 7 17 6
-4 11 15 7 29 0 1 4 14 10 30 11 28 22 72 23 95 1 6 5 12 9 12 5 0 6 7 3 15
-4 8 -1 15 6 15 6 0 9 4 6 9 -3 5 1 33 9 62 9 30 20 72 26 93 8 28 13 35 19
26 5 -8 6 -18 4 -22 -3 -4 -1 -8 4 -8 5 0 9 -7 9 -15 0 -8 -5 -15 -11 -15 -5
0 -1 -7 10 -16 10 -8 12 -12 4 -8 -13 7 -13 5 -1 -9 7 -9 11 -23 8 -31 -3 -7
-1 -18 4 -23 5 -5 10 -21 11 -36 1 -15 5 -27 9 -27 3 0 6 -6 6 -12 1 -18 11
-83 13 -83 1 0 4 -11 7 -25 7 -39 11 -55 13 -55 2 0 10 -37 12 -62 1 -13 5
-23 8 -23 3 0 7 -12 8 -27 3 -29 9 -68 12 -68 3 0 11 -39 13 -62 1 -13 5 -23
10 -23 4 0 7 -7 7 -16 0 -8 5 -12 10 -9 13 8 140 13 135 5 -2 -3 7 -5 20 -5
13 0 21 3 19 7 -3 4 11 4 30 1 29 -4 36 -1 47 18 8 13 15 31 16 39 4 27 8 45
14 55 4 6 5 18 4 28 -2 9 0 17 4 17 8 0 36 108 33 123 -1 4 2 7 6 7 4 0 9 9
10 20 4 42 6 50 12 50 3 0 6 8 7 18 2 29 14 76 22 87 5 5 7 18 6 28 -2 9 0 17
5 17 5 0 7 8 5 18 -1 9 4 30 12 45 7 15 11 32 8 37 -3 5 -1 11 5 15 6 4 8 11
5 16 -4 5 -2 9 4 9 5 0 8 8 6 18 -1 9 2 23 8 30 5 7 7 15 4 19 -4 3 -2 12 4
20 6 7 8 13 4 13 -4 0 -2 7 5 15 7 8 10 15 6 15 -3 0 -1 12 5 28 6 15 12 34
14 42 2 8 9 35 16 60 15 55 19 70 21 93 1 9 5 17 8 17 5 0 10 22 13 63 1 9 5
17 10 17 5 0 7 7 3 15 -3 8 -1 15 5 15 6 0 7 5 4 10 -3 6 -3 10 2 10 4 0 9 10
9 23 1 12 4 31 7 42 4 16 0 21 -14 22 -11 1 -17 -2 -14 -8 9 -14 -2 -11 -19 7
-9 8 -16 10 -16 4 0 -8 -6 -8 -20 0 -17 9 -19 8 -13 -7 6 -16 5 -16 -10 -4
-14 11 -17 11 -17 0 0 -9 -3 -10 -8 -3 -9 13 -45 27 -38 15 3 -5 -1 -11 -9
-15 -8 -3 -17 -1 -20 4 -8 14 -50 7 -68 -11 -9 -9 -14 -19 -11 -21 2 -3 -3
-24 -11 -48 -8 -24 -13 -45 -11 -47 2 -3 -2 -20 -10 -39 -8 -19 -12 -39 -9
-44 4 -6 -1 -19 -9 -31 -8 -12 -12 -28 -9 -37 5 -11 3 -13 -7 -7 -8 5 -11 4
-7 -2 3 -5 1 -27 -5 -49 -7 -21 -13 -42 -14 -46 -1 -5 -2 -9 -4 -10 -2 -4 -7
-23 -15 -61 -3 -15 -12 -48 -21 -73 -8 -25 -16 -54 -17 -65 -1 -10 -4 -19 -8
-19 -3 0 -5 -11 -4 -24 2 -13 -1 -29 -6 -37 -7 -12 -10 -12 -21 0 -11 11 -11
13 1 6 10 -6 12 -4 5 6 -4 8 -10 21 -11 29 -10 50 -16 88 -17 107 0 11 -4 19
-8 16 -7 -4 -13 37 -9 60 0 4 -5 7 -11 7 -9 0 -8 4 2 10 8 5 10 10 4 10 -6 0
-11 10 -10 23 1 12 -1 24 -5 27 -4 3 -8 19 -10 35 -2 17 -7 35 -12 42 -5 7 -6
17 -2 23 3 5 2 10 -3 10 -6 0 -8 9 -5 20 3 11 1 20 -3 20 -5 0 -10 10 -11 23
-5 70 -9 87 -16 87 -5 0 -7 6 -4 14 3 8 1 17 -6 20 -9 3 -9 5 0 5 9 1 8 8 -2
28 -8 15 -12 30 -9 35 9 15 -26 20 -43 7 -12 -10 -15 -10 -9 -1 4 7 2 12 -8
12 -8 0 -18 -5 -21 -11 -5 -7 -15 -5 -30 5 -17 12 -26 13 -31 4 -5 -7 -3 -8 6
-3 9 6 11 4 5 -5 -6 -10 -11 -9 -22 5 -7 11 -13 14 -13 8z"/>
<path d="M4830 1603 c0 -8 -11 -11 -30 -9 -17 2 -33 -1 -36 -5 -3 -5 -10 -7
-15 -3 -9 5 -42 5 -161 1 -25 -1 -44 -5 -42 -9 3 -5 0 -8 -5 -8 -6 0 -11 5
-11 12 0 9 -3 9 -12 0 -16 -16 -31 -15 -22 1 6 10 4 10 -7 0 -15 -15 -33 -18
-25 -5 3 5 -1 9 -9 9 -8 0 -12 -4 -9 -9 3 -4 0 -8 -5 -8 -6 0 -11 5 -11 12 0
9 -3 9 -12 0 -16 -16 -31 -15 -22 1 5 8 2 8 -9 -2 -13 -10 -17 -10 -17 -1 0
10 -4 10 -16 -1 -13 -10 -17 -10 -25 2 -8 12 -10 12 -20 -1 -8 -11 -12 -12
-16 -2 -2 6 -9 12 -14 12 -6 0 -7 -5 -3 -11 5 -8 1 -8 -14 0 -14 8 -23 8 -27
1 -5 -8 -11 -7 -21 1 -10 8 -18 8 -27 1 -7 -6 -22 -11 -32 -11 -11 0 -45 -2
-75 -4 -30 -2 -65 1 -78 5 -15 5 -21 4 -17 -2 4 -6 -6 -8 -24 -6 -17 2 -31 0
-31 -3 0 -4 -9 -7 -20 -8 -11 -1 -18 2 -15 7 3 4 -3 7 -12 5 -10 -2 -22 -4
-26 -4 -5 -1 -6 -5 -3 -10 5 -8 -22 -8 -31 -1 -9 7 -29 4 -35 -5 -4 -5 -8 -1
-8 10 0 16 -2 17 -9 6 -8 -13 -12 -13 -27 0 -16 12 -17 12 -11 -4 4 -12 3 -16
-4 -11 -18 11 -68 11 -73 0 -3 -6 -5 -5 -5 2 -1 10 -6 10 -23 1 -13 -7 -25
-11 -28 -10 -3 2 -13 7 -24 13 -13 7 -16 7 -12 -1 4 -7 -7 -10 -31 -8 -21 1
-44 -2 -50 -6 -7 -5 -13 -4 -13 1 0 11 -50 9 -68 -2 -7 -4 -12 -2 -12 5 0 10
-3 10 -12 1 -9 -9 -15 -9 -27 1 -9 8 -12 8 -8 1 9 -16 -38 -24 -54 -10 -9 8
-10 8 -5 -2 6 -9 1 -11 -18 -8 -16 3 -26 0 -26 -7 0 -8 -3 -7 -9 2 -6 9 -10
10 -16 2 -5 -9 -10 -9 -20 -1 -10 8 -15 8 -20 0 -5 -8 -11 -7 -23 2 -11 9 -14
9 -9 1 8 -13 -42 -11 -65 3 -8 5 -7 1 2 -11 14 -17 14 -18 -7 -6 -17 9 -23 9
-23 0 0 -8 -5 -7 -17 2 -9 8 -14 9 -10 3 4 -7 -7 -11 -30 -12 -20 -1 -38 -4
-41 -7 -3 -3 -11 0 -18 6 -8 7 -14 6 -20 -2 -5 -8 -3 -9 6 -4 9 5 11 4 6 -3
-5 -9 -13 -9 -27 -2 -13 8 -19 7 -19 0 0 -8 -6 -8 -20 0 -15 8 -20 8 -20 -1 0
-7 -10 -9 -25 -7 -14 3 -25 2 -25 -3 0 -4 -11 -6 -25 -4 -14 1 -25 -1 -25 -4
0 -3 -12 -7 -27 -8 -56 -3 -128 -15 -143 -23 -8 -4 -34 -7 -57 -6 -22 0 -39
-2 -37 -5 2 -4 -3 -10 -12 -13 -10 -4 -13 -2 -8 7 5 9 4 9 -6 0 -7 -6 -19 -9
-26 -6 -8 3 -14 0 -14 -6 0 -6 -5 -11 -11 -11 -5 0 -7 6 -4 13 4 6 0 4 -8 -6
-11 -14 -16 -15 -20 -5 -4 11 -6 11 -6 0 -1 -7 -5 -10 -11 -7 -5 3 -10 0 -10
-7 0 -9 -3 -9 -10 2 -7 11 -10 11 -10 2 0 -7 -4 -11 -9 -8 -5 3 -23 -1 -40
-10 -17 -8 -35 -13 -41 -9 -6 3 -13 0 -16 -8 -2 -7 -11 -14 -19 -15 -8 -1 -22
-3 -30 -4 -8 -1 -15 -5 -15 -9 0 -8 -50 -23 -69 -20 -9 2 -12 -3 -7 -14 3 -9
2 -13 -4 -10 -6 3 -10 2 -10 -4 0 -5 -9 -8 -19 -6 -11 2 -22 -3 -25 -11 -3 -8
-11 -14 -17 -14 -7 0 -24 -13 -40 -29 -15 -16 -30 -27 -33 -23 -5 5 -8 -6 -5
-24 0 -4 -4 -10 -10 -14 -16 -9 -17 -83 -3 -88 7 -2 11 -7 9 -10 -2 -4 10 -20
26 -37 17 -16 27 -23 22 -15 -9 15 33 -15 47 -35 5 -6 8 -4 8 5 0 9 3 11 8 5
4 -5 16 -12 27 -13 11 -2 26 -8 32 -14 7 -6 19 -8 28 -5 8 4 21 0 29 -8 18
-18 30 -20 19 -2 -4 6 5 4 19 -5 20 -13 28 -14 32 -5 5 9 7 9 12 -1 3 -6 10
-9 15 -6 6 3 17 0 26 -8 12 -9 15 -9 9 0 -4 6 -2 12 3 12 6 0 11 -4 11 -10 0
-5 5 -10 11 -10 5 0 7 5 3 11 -5 8 -1 8 14 0 11 -6 47 -11 79 -11 58 0 60 1
78 38 10 20 18 40 17 45 -1 4 3 7 8 7 6 0 23 13 38 28 15 15 32 29 37 31 23 8
44 28 37 36 -4 5 -1 5 6 1 7 -4 19 -2 27 4 8 7 15 9 15 4 0 -5 7 2 16 14 8 12
20 20 25 16 5 -3 26 4 45 15 19 12 32 15 28 9 -5 -9 -2 -9 9 1 9 7 17 10 17 5
0 -5 5 -1 11 8 5 10 16 15 24 12 8 -4 15 -2 15 3 0 5 7 10 15 11 8 1 22 3 30
4 8 1 15 6 15 11 0 5 8 3 17 -4 12 -10 14 -10 9 -1 -8 13 2 19 44 26 14 3 27
5 30 6 3 2 9 2 14 1 5 -1 18 6 29 16 11 10 17 13 13 6 -5 -9 4 -8 29 2 19 9
35 12 35 8 0 -5 5 -1 10 7 9 13 10 13 10 0 0 -10 3 -11 8 -3 4 6 22 13 40 16
18 3 39 10 46 16 9 7 16 7 24 -1 9 -9 12 -9 12 1 0 7 5 9 10 6 6 -3 10 -1 10
6 0 8 4 8 15 -1 13 -11 19 -7 17 11 -1 4 12 5 29 3 22 -3 28 0 23 9 -5 9 -4 9
6 0 13 -12 43 -6 35 7 -3 5 4 6 16 3 12 -4 25 0 30 8 5 9 9 10 9 2 0 -8 9 -9
29 -3 16 4 32 6 35 2 3 -3 6 -1 6 5 0 6 9 9 22 5 16 -4 19 -2 13 9 -7 12 -6
12 7 1 11 -8 18 -9 23 -3 3 6 28 9 54 8 27 -1 47 1 45 5 -2 4 0 9 6 13 5 3 10
1 10 -5 0 -6 5 -8 13 -3 6 4 29 9 51 10 21 1 45 8 54 15 13 11 14 11 7 -1 -6
-11 -4 -13 11 -6 10 4 27 8 37 9 9 0 17 5 17 11 0 5 5 3 10 -5 7 -11 10 -11
10 -2 0 7 5 10 10 7 6 -4 18 -1 27 7 12 9 15 9 9 1 -5 -10 -1 -11 19 -3 15 6
31 8 36 4 5 -3 9 0 9 6 0 7 8 9 21 5 15 -5 19 -4 15 4 -5 8 0 8 18 1 19 -7 29
-5 41 6 11 12 15 12 15 2 0 -9 3 -9 8 -2 4 6 19 10 35 9 15 -1 27 2 27 7 0 11
23 6 32 -7 5 -6 8 -6 8 2 0 7 10 10 26 7 14 -3 23 -1 20 4 -3 5 10 7 29 5 24
-2 35 1 35 9 0 9 3 8 10 -2 7 -11 12 -12 18 -4 4 6 19 10 34 8 15 -1 32 4 38
12 9 10 17 11 30 4 13 -7 21 -7 25 1 4 5 12 8 18 6 7 -2 20 0 31 5 10 6 16 6
13 1 -3 -5 7 -7 24 -5 16 2 29 8 29 12 0 4 23 7 50 6 28 -1 50 2 50 6 0 3 8 5
17 4 10 -2 33 3 51 11 19 8 31 9 27 4 -3 -6 -2 -11 4 -11 5 0 13 5 16 10 4 6
10 8 15 5 4 -3 10 2 14 10 3 8 0 17 -6 21 -6 4 -8 3 -4 -4 8 -14 -36 -12 -46
3 -5 6 -8 6 -8 -2z"/>
<path d="M4930 1579 c0 -5 5 -7 10 -4 6 3 10 8 10 11 0 2 -4 4 -10 4 -5 0 -10
-5 -10 -11z"/>
</g>
</svg>
